<?xml version="1.0" standalone="no"?>
<!DOCTYPE svg PUBLIC "-//W3C//DTD SVG 1.1//EN" "http://www.w3.org/Graphics/SVG/1.1/DTD/svg11.dtd">
<svg xmlns="http://www.w3.org/2000/svg">
<metadata>Generated by Fontastic.me</metadata>
<defs>
<font id="nakleika" horiz-adv-x="512">
<font-face font-family="nakleika" units-per-em="512" ascent="480" descent="-32"/>
<missing-glyph horiz-adv-x="512" />

<glyph glyph-name="canceled" unicode="&#97;" d="M256 512c-141 0-256-115-256-256 0-141 115-256 256-256 141 0 256 115 256 256 0 141-115 256-256 256z m128-348l-36-36-92 92-92-92-36 36 92 92-92 92 36 36 92-92 92 92 36-36-92-92z"/>
<glyph glyph-name="doc" unicode="&#98;" d="M280 512l-176 0c-9 0-17-3-23-9-6-6-9-14-9-23l0-448c0-9 3-17 9-23 7-6 14-9 23-9l304 0c9 0 17 3 23 9 6 6 9 14 9 23l0 320z m128-174l0-2-144 0 0 144 3 0z m-304-306l0 448 128 0 0-176 176 0 0-272z"/>
<glyph glyph-name="docs" unicode="&#99;" d="M384 512l-176 0c-9 0-17-3-23-9-6-7-9-14-9-23l176 0 0-128 128 0 0-256-112 0 0-32 112 0c9 0 17 3 23 9 6 6 9 14 9 23l0 288z m0-128l0 83 83-83z m-352 64c-9 0-17-3-23-9-6-7-9-14-9-23l0-384c0-9 3-17 9-23 7-6 14-9 23-9l272 0c9 0 17 3 23 9 6 6 9 14 9 23l0 288-128 128z m272-416l-272 0 0 384 144 0 0-128 128 0z m-96 288l0 83 83-83z"/>
<glyph glyph-name="done" unicode="&#100;" d="M256 512c-141 0-256-115-256-256 0-141 115-256 256-256 141 0 256 115 256 256 0 141-115 256-256 256z m-51-384l-128 128 36 36 92-92 194 195 36-37z"/>
<glyph glyph-name="envelope" unicode="&#101;" d="M469 448l-426 0c-24 0-43-19-43-43l0-298c0-24 19-43 43-43l426 0c24 0 43 19 43 43l0 298c0 24-19 43-43 43z m-10-32l-203-127-203 127z m21-320l-448 0 0 289 224-140 224 140z"/>
<glyph glyph-name="finance" unicode="&#102;" d="M54 233l93 0 0-233-93 0z m163-24l93 0 0-209-93 0z m163 117l93 0 0-326-93 0z m0 186l93 0 0-93-23 0 0 45-187-187-92 93-107-107-25 24 132 132 92-93 162 163-45 0 0 23z"/>
<glyph glyph-name="hryvna-sign" unicode="&#103;" d="M82 188c0 2 0 3 0 4 0 0 0 1 0 1 1 9 2 19 3 28 0 5 0 10 1 15 1 0 2 0 2 0 22 0 44 0 66 0 1 0 2 0 3 1 10 8 20 17 30 26 0 0 1 0 1 1-33 0-65 0-98 0 1 16 3 32 4 47 1 0 100 0 149 0 1 0 3 1 4 2 4 4 8 7 12 11 7 8 14 17 20 27 5 8 8 16 8 26 1 12-4 23-12 32-9 10-20 16-33 20-15 4-30 4-45 4-27-2-54-7-79-16-4-1-8-3-13-5 1 3 1 5 1 8 1 13 2 26 3 40 1 12 2 24 3 36 0 1 0 2 1 2 4 1 8 2 12 3 30 7 60 11 91 11 14 0 27-1 41-2 19-3 38-7 56-14 21-8 40-18 56-34 28-30 36-64 26-103-4-17-13-32-23-45 0-1-1-2-2-3 20 0 41 0 60 0-2-21-2-22-5-47 0 0-65 0-97 0-2 0-3 0-4-1-10-9-20-17-30-26 0 0-1-1-2-2 44 0 88 0 131 0-1-15-2-31-3-47-1 0-2 0-3 0-58 0-116 0-174 0-3 0-6 0-8-3-7-8-14-16-20-25-8-14-9-28-4-43 4-14 14-23 27-28 11-5 23-7 36-8 18-2 37-1 56 2 25 4 50 11 74 19 5 2 10 4 15 6-3-30-5-59-8-88-1 0-3-1-4-1-2-1-3-1-4-2-21-6-42-11-63-13-14-2-29-3-43-3-22-1-45-1-67 3-23 3-45 10-66 20-16 9-31 20-43 35-14 16-21 36-24 57-1 10-1 20 1 30 2 15 8 28 15 40 1 1 1 2 2 2-12 0-22 0-33 0z"/>
<glyph glyph-name="in-progress" unicode="&#104;" d="M256 512c-141 0-256-115-256-256 0-141 115-256 256-256 141 0 256 115 256 256 0 141-115 256-256 256z m-51-371l0 230 153-115z"/>
<glyph glyph-name="layers" unicode="&#105;" d="M11 361l238-129c2-1 4-2 7-2 1 0 3 0 4 1 1 0 3 0 4 1l240 129c6 3 8 8 8 15 0 3-1 5-2 8-2 2-4 4-6 5l-238 121c-5 2-10 2-14 0l-240-120c-3-2-5-4-7-6-1-3-2-5-2-8 0-7 3-12 8-15z m248 117l202-103-205-111-203 111z m241-206l-47 24-34-18 40-21-205-110-203 110 42 22-34 18-50-25c-6-3-9-8-9-14 0-7 3-11 8-14l238-130c2-1 5-2 8-2 1 0 2 0 3 1 1 0 3 1 4 1l240 130c6 3 8 7 8 14 0 6-3 11-9 14z m0-112l-45 22-34-18 38-19-205-110-203 110 39 18-34 19-47-22c-6-3-9-8-9-14 0-7 3-11 8-14l238-130c1 0 1 0 2-1 1 0 2 0 3 0 1-1 1-1 2-1 2 0 3 1 4 1 1 0 3 1 4 1l240 130c5 3 8 7 8 14 0 6-3 11-9 14z"/>
<glyph glyph-name="list" unicode="&#106;" d="M42 298c-23 0-42-19-42-42 0-23 19-42 42-42 22 0 41 19 41 42 0 23-19 42-41 42z m0 166c-23 0-42-19-42-42 0-23 19-41 42-41 22 0 41 18 41 41 0 23-19 42-41 42z m0-333c-23 0-42-18-42-41 0-23 19-42 42-42 22 0 41 19 41 42 0 23-19 41-41 41z m83-69l387 0 0 56-387 0z m0 166l387 0 0 56-387 0z m0 222l0-56 387 0 0 56z"/>
<glyph glyph-name="location" unicode="&#107;" d="M256 0l-12 14c-7 7-169 188-169 317 0 100 81 181 181 181 100 0 181-81 181-181 0-129-162-310-169-317z m0 479c-82 0-148-66-148-148 0-97 110-237 148-281 38 44 148 184 148 281 0 82-66 148-148 148z m0-224c-42 0-75 34-75 76 0 41 33 75 75 75 42 0 75-34 75-75 0-42-33-76-75-76z m0 118c-23 0-42-19-42-42 0-24 19-43 42-43 23 0 42 19 42 43 0 23-19 42-42 42z"/>
<glyph glyph-name="menu" unicode="&#108;" d="M63 62l387 0 0 56-387 0z m0 111l387 0 0 55-387 0z m0 276l0-55 387 0 0 55z m0-165l387 0 0 55-387 0z"/>
<glyph glyph-name="new" unicode="&#109;" d="M288 376l0 136-200 0c-13 0-24-11-24-24l0-464c0-13 11-24 24-24l336 0c13 0 24 11 24 24l0 328-136 0c-13 0-24 11-24 24z m-107-176l0-50-25 0-19 35-20 35 0-70-24 0 0 101 32 0 32-57 0 57 24 0 0-51z m89 42l0-10-43 0 0-18 40 0 0-19-40 0 0-26 43 0 0-19-69 0 0 101 69 0z m58-25l9 34 12 0c10 0 13 0 13 0 0-1 4-16 8-34 4-18 8-33 8-33 0 0 15 67 15 67 0 0 6 0 13 0 10 0 13 0 13 0 0-1-6-23-13-51l-13-50-28 0-8 31c-5 17-8 31-8 31 0 0-3-11-7-25-3-14-7-28-8-31l-1-6-14 0c-8 0-14 0-14 0 0 0-6 23-13 50-7 28-13 50-13 51 0 0 4 0 14 0l13 0 7-34c3-18 6-33 7-33 0 0 4 15 8 33z m113 190l-98 98c-4 4-10 7-17 7l-6 0 0-128 128 0 0 6c0 6-2 12-7 17z"/>
<glyph glyph-name="note" unicode="&#110;" d="M399 32l-367 0 0 400 225 0 32 31-1 1-256 0c-9 0-16-3-23-10-6-6-9-13-9-22l0-400c0-9 3-17 9-23 7-6 14-9 23-9l367 0c9 0 17 3 23 9 6 6 9 14 9 23l0 234-32-31z m88 459c-15 14-31 21-48 21-19 0-36-8-51-23l-219-219c0 0-1-1-2-2 0 0 0-1-1-2 0 0 0-1 0-2-5-18-17-56-35-116-1-2-1-3-1-5 0-2 0-3 1-5 1-1 2-3 3-4 3-2 6-4 10-4 1 0 2 1 4 1 43 15 81 27 114 36 2 1 4 2 5 4 142 140 216 213 221 218 16 17 24 34 24 52-1 18-9 35-25 50z m-22-80c-9-9-78-77-207-205l-10-9c-7-2-17-5-31-10-14-4-29-9-45-15 12 40 19 66 23 79 139 139 210 211 216 216 8 9 18 13 28 13 9 0 17-4 26-12 10-10 15-19 15-28 0-8-5-18-15-29z"/>
<glyph glyph-name="np" unicode="&#111;" d="M209 326l94 0 0 70 69 0-116 116-116-116 69 0 0-70z m-23-23l-70 0 0 69-116-116 116-116 0 69 70 0z m326-47l-116 116 0-69-70 0 0-94 70 0 0-69z m-209-70l-94 0 0-70-69 0 116-116 116 116-69 0 0 70z"/>
<glyph glyph-name="pdf" unicode="&#112;" d="M343 496c-8 7-19 16-30 16l-206 0c-22 0-40-18-40-41l0-430c0-23 18-41 40-41l298 0c22 0 41 18 41 41l0 338c0 11-9 22-17 30z m71-157l0-308-316 0 0 450 184 0 0-117c0-9 7-16 15-16l117 0z m-101 40l0 102 101-102z m53-190c-13 13-49 9-67 7-18 11-29 26-38 48 4 17 11 42 6 58-5 27-39 24-44 6-5-17-1-40 7-69-10-25-26-58-37-77-20-11-48-28-53-48-3-17 27-57 79 32 23 8 49 17 71 21 20-11 43-18 58-18 26 0 29 29 18 40z m-205-80c5 14 25 30 31 36-19-31-31-37-31-36z m84 197c8 0 7-33 2-42-4 14-4 42-2 42z m-25-141c10 17 19 38 26 56 8-15 19-28 31-36-22-5-40-14-57-20z m136 5c0 0-5-6-38 8 36 3 42-6 38-8z"/>
<glyph glyph-name="peoples" unicode="&#113;" d="M373 94l-100 56c16 13 28 31 36 54 7 23 11 45 11 66l0 67c0 15-6 29-17 44-12 15-27 27-45 36-19 10-38 15-57 15-12 0-23-2-35-6-13-4-23-9-33-15-11-6-19-13-27-21-9-8-15-17-19-26-5-9-7-18-7-27l0-67c0-19 4-40 13-64 8-23 21-42 38-56l-104-56c-2-1-4-2-8-4-3-1-7-4-12-9-4-5-7-9-7-14l0-40c0-8 3-14 8-19 5-5 12-8 19-8l346 0c7 0 14 3 19 8 5 5 8 11 8 19l0 40c0 2-1 4-2 7-1 2-2 4-3 5-2 2-4 4-6 5-2 2-4 4-6 5-2 1-3 2-5 3-1 1-3 1-4 1z m-5-62l-336 0 0 29c3 2 5 3 8 4l2 1 104 56c1 1 3 2 4 3 1 1 3 3 4 4 1 1 2 2 3 4 1 1 2 3 3 4 0 2 1 4 1 5 1 2 1 4 1 5 1 12-3 21-11 28-7 5-12 12-18 20-5 9-9 17-12 26-3 9-5 18-7 26-1 9-2 16-2 23l0 67c0 13 10 26 28 41 19 14 39 22 61 22 22 0 42-8 60-22 18-14 27-28 27-41l0-67c0-17-3-34-8-53-6-18-15-32-27-42-10-7-13-16-12-28 1-11 6-20 16-25l100-56 3-1c3-1 5-3 8-5l0-28z m117 142l-102 56c9 7 16 16 23 26 7 11 12 21 16 33 3 11 6 22 8 32 1 10 2 20 2 28l0 68c0 11-3 22-11 33-7 12-16 22-27 31-11 9-24 16-39 22-14 6-29 9-44 9-19 0-37-5-56-14-18-9-33-20-45-34 1 0 4-1 8-1 3 0 6 0 8 0 2 0 5-1 8-1 3 0 6-1 9-1 2-1 5-1 7-2 18 14 38 21 61 21 22 0 42-8 61-22 19-15 28-28 28-41l0-68c0-15-3-33-9-51-6-19-16-34-28-43-9-7-13-17-12-28 0-2 0-4 1-6 1-2 2-4 3-6 1-2 2-4 3-5 1-2 2-3 4-5 2-1 4-2 6-4l102-55c0 0 1-1 1-1 1 0 1 0 2-1 0 0 1 0 2-1l2-1 1-1 2-1 0-28-64 0c3-2 5-6 7-9 2-4 4-7 5-10 1-3 2-7 4-13l53 0c5 0 10 1 14 3 4 3 7 6 10 10 2 4 3 9 3 14l0 40c0 4-2 9-7 13-4 5-9 8-13 11z"/>
<glyph glyph-name="picture" unicode="&#114;" d="M480 472l-448 0c-9 0-16-3-22-10-7-6-10-13-10-22l0-368c0-9 3-16 10-22 6-7 13-10 22-10l448 0c9 0 16 3 22 10 7 6 10 13 10 22l0 368c0 6-1 11-4 16-3 5-7 9-12 12-5 2-10 4-16 4z m0-400l-448 0 0 94 128 124 133-131c3-4 6-5 10-5 4 0 8 1 12 4l58 53 105-108c1 0 1-1 2-1l0-30 0 0z m0 75l-94 97c-3 2-7 4-10 4-4 0-8-1-11-3l-61-53-132 131c-3 4-6 6-11 6-5 0-9-1-12-5l-117-113 0 229 448 0z m-112 165c6 0 11 1 16 4 5 3 9 7 12 12 2 5 4 10 4 16 0 9-3 16-10 22-6 7-14 10-22 10-9 0-16-3-23-10-6-6-9-13-9-22 0-9 3-17 9-23 7-6 14-9 23-9z"/>
<glyph glyph-name="sent" unicode="&#115;" d="M476 509l-463-268c-19-10-16-35 2-43l106-44 287 253c6 5 14-3 9-9l-241-293 0-80c0-24 29-33 43-16l63 77 125-52c14-6 30 3 33 18l72 432c3 20-19 35-36 25z"/>
<glyph glyph-name="trash" unicode="&#116;" d="M448 432l-112 0 0 44c0 6-2 12-5 18-3 6-8 10-14 13-5 3-11 5-18 5l-86 0c-10 0-18-4-26-11-7-7-11-15-11-25l0-44-112 0c-4 0-8-1-11-5-3-3-5-6-5-11 0-4 2-8 5-11 3-3 7-5 11-5l22 0 37-369c1-9 4-16 11-22 6-6 14-9 23-9l198 0c9 0 16 3 23 9 6 6 10 13 11 22l37 369 22 0c3 0 5 1 8 3 2 1 4 3 6 5 1 3 2 5 2 8 0 5-2 8-5 11-3 4-7 5-11 5z m-240 44c0 3 2 5 5 5l86 0c3 0 5-2 5-5l0-44-96 0z m149-442c0-1-1-2-2-2l-198 0c-1 0-2 1-2 2l-37 366 276 0z"/>
<glyph glyph-name="trash-solid" unicode="&#117;" d="M85 57c0-31 26-57 57-57l228 0c31 0 57 26 57 57l0 341-342 0z m370 426l-100 0-28 29-142 0-28-29-100 0 0-56 398 0z"/>
<glyph glyph-name="truck" unicode="&#118;" d="M511 259l-72 95-1 2-70 0 0 44c0 15-13 28-28 28l-264 0c-42 0-76-34-76-76l0-220 50 0c3-13 11-25 22-34 11-9 25-14 40-14 15 0 29 5 41 14 10 9 18 21 21 34l164 0c6-24 25-42 49-47 4-1 9-1 13-1 29 0 55 20 62 48l50 0 0 126z m-399-143c-17 0-32 15-32 32 0 18 15 32 32 32 18 0 32-14 32-32 0-17-14-32-32-32z m224 48l-162 0c-3 13-11 25-21 34-12 9-26 14-41 14-15 0-29-5-40-14-11-9-19-21-22-34l-18 0 0 188c0 24 20 44 44 44l260 0z m32 160l54 0 30-40-84 0z m32-208c-18 0-32 15-32 32 0 18 14 32 32 32 17 0 32-14 32-32 0-17-15-32-32-32z m80 48l-18 0c-3 13-11 25-22 34-11 9-25 14-40 14l0 0c-11 0-22-3-32-8l0 48 108 0 4-5z"/>
<glyph glyph-name="user-follow" unicode="&#119;" d="M32 65c0 8 4 14 13 18l141 67c5 2 9 5 12 10 4 4 6 9 6 15 2 12-2 21-12 29-15 12-26 30-35 53-9 24-13 45-13 63l0 80c0 6 1 11 4 18 3 6 7 12 13 18 5 6 11 11 18 17 8 5 16 10 24 14 8 4 17 7 26 10 9 2 18 3 27 3 9 0 18-1 27-3 9-2 18-6 26-10 8-4 16-8 23-14 7-5 14-11 19-17 5-6 9-12 12-18 3-6 5-12 5-18l0-80c0-19-4-40-12-63-8-23-20-41-35-53-3-2-5-5-7-8-2-4-4-7-5-10-1-4-1-7-1-11 1-6 3-11 6-15 4-5 8-8 13-11l48-22 8 32-43 19c20 16 35 38 45 65 10 28 15 53 15 77l0 80c0 10-3 21-9 32-5 11-13 21-22 30-10 10-20 18-32 26-12 7-25 13-40 18-14 4-28 6-41 6-23 0-46-6-68-17-23-11-41-25-55-43-14-17-21-35-21-52l0-80c0-22 5-47 15-75 10-28 25-51 45-67l-140-66-16-9c-10-8-16-16-16-23l0-48c0-9 3-16 9-22 7-7 14-10 23-10l352 0 0 32-352 0z m464 31l-48 0 0 48c0 4-2 8-5 11-3 4-7 5-11 5-3 0-6 0-8-2-3-1-5-3-6-6-2-2-2-5-2-8l0-48-48 0c-3 0-6-1-8-2-3-1-5-3-6-6-2-2-2-5-2-8 0-4 1-8 5-11 3-3 6-5 11-5l48 0 0-48c0-4 1-8 5-11 3-3 7-5 11-5 4 0 8 2 11 5 3 3 5 7 5 11l0 48 48 0c4 0 8 2 11 5 4 3 5 7 5 11 0 5-1 8-5 11-3 4-7 5-11 5z"/>
<glyph glyph-name="wait-for-delivery" unicode="&#120;" d="M181 60l150 0 0 181-150 0z m-181 0l151 0 0 392-151 0z m361 0l151 0 0 181-151 0z m-180 392l0-181 331 0 0 181z"/>
<glyph glyph-name="hold" unicode="&#121;" d="M512 309l-193 0 78 81c-78 76-203 79-281 2-77-77-77-201 0-278 78-77 203-77 281 0 39 38 58 83 58 139l57 0c0-56-25-129-75-179-100-99-262-99-362 0-100 99-100 259 0 358 99 99 260 99 359 0l78 80z m-242 61l0-121 100-59-21-35-121 73 0 142z"/>
<glyph glyph-name="add-circle" unicode="&#122;" d="M256 484c126 0 228-102 228-228 0-126-102-228-228-228-126 0-228 102-228 228 0 126 102 228 228 228m-117-251l94 0 0-94 46 0 0 94 94 0 0 46-94 0 0 94-46 0 0-94-94 0 0-46m117 279c-35 0-68-7-100-20-30-13-58-31-81-55-24-23-42-51-55-81-13-32-20-65-20-100 0-35 7-68 20-100 13-30 31-58 55-81 23-24 51-42 81-55 32-13 65-20 100-20 35 0 68 7 100 20 30 13 58 31 81 55 24 23 42 51 55 81 13 32 20 65 20 100 0 35-7 68-20 100-13 30-31 58-55 81-23 24-51 42-81 55-32 13-65 20-100 20z"/>
<glyph glyph-name="wallet" unicode="&#65;" d="M512 367c0 4 0 7-1 11-1 4-3 9-5 14-2 5-6 10-12 14-6 4-13 8-21 10l-362 72c-8 0-16-2-24-7-7-4-13-10-17-17-4-7-6-15-6-24l0-64-17 0c-12 0-24-5-33-15-9-9-14-20-14-33l0-256c0-13 5-25 14-34 9-9 21-14 34-14l416 0c13 0 25 5 34 14 9 9 14 21 14 34l0 295z m-416 73c0 4 1 8 4 11 3 3 6 5 11 5l353-72-2-2-5-4-9-2-352 0z m384-368c0-4-2-8-5-11-3-3-7-5-11-5l-416 0c-4 0-8 2-11 5-3 3-5 7-5 11l0 256c0 4 2 8 5 11 3 3 7 5 11 5l400 0c9 0 16 1 22 4 7 3 10 7 10 12l0-288z m-384 160c-9 0-17-3-23-10-6-6-9-13-9-22 0-9 3-17 9-23 6-6 14-9 23-9 9 0 16 3 23 9 6 6 9 14 9 23 0 9-3 16-9 22-7 7-14 10-23 10z"/>
</font>
</defs>
</svg>
