<?xml version="1.0" encoding="utf-8"?>
<!-- Generator: Adobe Illustrator 17.0.0, SVG Export Plug-In . SVG Version: 6.00 Build 0)  -->
<!DOCTYPE svg PUBLIC "-//W3C//DTD SVG 1.1//EN" "http://www.w3.org/Graphics/SVG/1.1/DTD/svg11.dtd">
<svg version="1.1" id="Warstwa_1" xmlns="http://www.w3.org/2000/svg" xmlns:xlink="http://www.w3.org/1999/xlink" x="0px" y="0px"
	 width="750px" height="150px" viewBox="-21.45 25.006 750 150" enable-background="new -21.45 25.006 750 150"
	 xml:space="preserve">
<g>
	<path fill="#333333" d="M54.432,138.873c0,1.091-0.19,2.062-0.569,2.916c-0.38,0.854-0.889,1.565-1.529,2.133
		c-0.64,0.57-1.399,0.985-2.276,1.244c-0.878,0.261-1.767,0.392-2.667,0.392h-7.965c-1.66,0-3.094-0.166-4.302-0.498
		c-1.208-0.331-2.324-0.935-3.343-1.813c-1.02-0.877-2.003-2.064-2.951-3.557c-0.949-1.492-2.016-3.424-3.2-5.796L2.731,90.869
		c-1.328-2.561-2.679-5.321-4.054-8.285c-1.375-2.962-2.607-5.842-3.697-8.64h-0.143c0.189,3.413,0.331,6.816,0.426,10.206
		c0.095,3.391,0.143,6.887,0.143,10.49v48.146c0,0.474-0.132,0.902-0.392,1.28c-0.261,0.38-0.711,0.699-1.351,0.961
		c-0.64,0.261-1.506,0.462-2.595,0.604c-1.091,0.143-2.489,0.214-4.196,0.214c-1.66,0-3.035-0.072-4.125-0.214
		c-1.091-0.141-1.945-0.343-2.561-0.604c-0.617-0.261-1.043-0.58-1.28-0.961c-0.237-0.378-0.356-0.806-0.356-1.28V60.076
		c0-2.228,0.652-3.899,1.956-5.014c1.303-1.114,2.903-1.672,4.8-1.672h10.027c1.801,0,3.319,0.155,4.551,0.462
		c1.232,0.309,2.334,0.818,3.307,1.528c0.971,0.711,1.885,1.696,2.738,2.951c0.853,1.256,1.731,2.809,2.631,4.658l17.923,33.64
		c1.042,2.039,2.073,4.042,3.094,6.009c1.019,1.969,2.003,3.936,2.951,5.904c0.949,1.968,1.872,3.901,2.774,5.796
		c0.899,1.897,1.777,3.794,2.631,5.69h0.072c-0.143-3.319-0.249-6.78-0.32-10.384c-0.072-3.603-0.107-7.04-0.107-10.311V56.164
		c0-0.473,0.143-0.899,0.426-1.28c0.284-0.378,0.758-0.711,1.423-0.995c0.664-0.285,1.54-0.486,2.631-0.605
		c1.09-0.117,2.49-0.177,4.196-0.177c1.611,0,2.963,0.06,4.054,0.177c1.09,0.119,1.931,0.32,2.524,0.605
		c0.593,0.284,1.007,0.617,1.246,0.995c0.236,0.38,0.356,0.807,0.356,1.28v82.709H54.432z"/>
	<path fill="#333333" d="M149.871,138.446c0.569,1.708,0.925,3.059,1.067,4.054c0.143,0.995-0.048,1.743-0.569,2.24
		c-0.522,0.498-1.447,0.806-2.774,0.925c-1.328,0.119-3.154,0.177-5.476,0.177c-2.418,0-4.302-0.036-5.653-0.107
		c-1.351-0.072-2.382-0.214-3.094-0.426c-0.711-0.214-1.208-0.509-1.494-0.889c-0.284-0.378-0.522-0.877-0.711-1.494l-6.187-18.49
		H90.417l-5.832,17.992c-0.19,0.665-0.438,1.222-0.747,1.672c-0.309,0.452-0.806,0.807-1.494,1.067
		c-0.689,0.261-1.66,0.438-2.916,0.533c-1.256,0.095-2.904,0.143-4.943,0.143c-2.181,0-3.888-0.072-5.12-0.214
		c-1.234-0.141-2.088-0.485-2.561-1.03c-0.474-0.545-0.64-1.316-0.498-2.312c0.143-0.997,0.498-2.322,1.067-3.982l28.375-81.643
		c0.285-0.805,0.616-1.458,0.996-1.956c0.378-0.498,0.983-0.877,1.813-1.138c0.829-0.26,1.979-0.426,3.448-0.498
		c1.47-0.071,3.413-0.107,5.832-0.107c2.797,0,5.024,0.036,6.686,0.107c1.659,0.072,2.951,0.238,3.876,0.498
		c0.925,0.261,1.588,0.653,1.992,1.174c0.402,0.522,0.747,1.234,1.031,2.133L149.871,138.446z M107.627,70.957h-0.071
		l-13.014,39.114h26.101L107.627,70.957z"/>
	<path fill="#333333" d="M229.949,142.642c0,0.522-0.131,0.983-0.392,1.386c-0.261,0.404-0.759,0.735-1.494,0.997
		c-0.735,0.261-1.743,0.462-3.022,0.604c-1.28,0.143-2.892,0.214-4.836,0.214c-3.083,0-5.299-0.12-6.65-0.356
		c-1.351-0.237-2.324-0.593-2.916-1.067c-0.594-0.474-1.055-1.042-1.387-1.707l-27.807-43.666v43.666
		c0,0.522-0.143,0.973-0.426,1.351c-0.285,0.38-0.782,0.699-1.494,0.961c-0.711,0.261-1.66,0.462-2.845,0.604
		c-1.186,0.143-2.702,0.214-4.551,0.214c-1.803,0-3.307-0.072-4.517-0.214c-1.208-0.141-2.169-0.343-2.88-0.604
		c-0.711-0.261-1.222-0.58-1.528-0.961c-0.309-0.378-0.462-0.829-0.462-1.351V56.022c0-0.521,0.153-0.971,0.462-1.351
		c0.308-0.378,0.818-0.686,1.528-0.925c0.711-0.236,1.672-0.426,2.88-0.569s2.714-0.213,4.517-0.213
		c1.849,0,3.366,0.071,4.551,0.213c1.185,0.143,2.133,0.332,2.845,0.569c0.711,0.238,1.208,0.546,1.494,0.925
		c0.284,0.38,0.426,0.83,0.426,1.351v39.186l26.953-39.115c0.331-0.616,0.734-1.125,1.208-1.528c0.473-0.402,1.09-0.722,1.849-0.961
		c0.757-0.237,1.729-0.402,2.915-0.498c1.185-0.095,2.702-0.143,4.551-0.143c1.896,0,3.46,0.071,4.694,0.213
		c1.232,0.143,2.216,0.345,2.951,0.604c0.734,0.261,1.244,0.581,1.528,0.961c0.285,0.38,0.426,0.806,0.426,1.28
		c0,0.806-0.213,1.636-0.641,2.489c-0.426,0.853-1.234,2.205-2.418,4.053l-25.247,33.07l27.522,41.604
		c1.042,1.944,1.672,3.235,1.885,3.875C229.842,141.754,229.949,142.264,229.949,142.642z"/>
	<path fill="#333333" d="M292.959,137.593c0,1.423-0.06,2.621-0.177,3.591c-0.119,0.974-0.297,1.777-0.533,2.419
		c-0.237,0.64-0.533,1.102-0.889,1.386s-0.771,0.426-1.244,0.426h-42.173c-1.564,0-2.88-0.462-3.946-1.387
		c-1.067-0.923-1.6-2.428-1.6-4.517V55.951c0-0.473,0.153-0.899,0.462-1.28c0.308-0.378,0.818-0.686,1.528-0.925
		c0.711-0.236,1.672-0.426,2.881-0.569c1.208-0.143,2.714-0.213,4.517-0.213c1.849,0,3.366,0.071,4.551,0.213
		c1.185,0.143,2.133,0.332,2.845,0.569c0.711,0.238,1.22,0.546,1.529,0.925c0.308,0.38,0.462,0.807,0.462,1.28v74.033h28.945
		c0.474,0,0.889,0.131,1.244,0.39c0.356,0.262,0.652,0.687,0.889,1.28c0.237,0.593,0.414,1.375,0.533,2.346
		C292.899,134.973,292.959,136.171,292.959,137.593z"/>
	<path fill="#333333" d="M358.529,138.09c0,1.375-0.061,2.525-0.177,3.449c-0.12,0.925-0.297,1.672-0.533,2.241
		c-0.238,0.569-0.533,0.983-0.889,1.244c-0.356,0.261-0.747,0.39-1.174,0.39H309.53c-1.564,0-2.88-0.462-3.946-1.387
		c-1.067-0.923-1.6-2.428-1.6-4.517V59.294c0-2.086,0.533-3.592,1.6-4.517c1.067-0.925,2.382-1.387,3.946-1.387h45.942
		c0.426,0,0.806,0.12,1.138,0.356c0.331,0.238,0.616,0.653,0.854,1.246c0.236,0.593,0.414,1.351,0.533,2.276
		c0.117,0.925,0.177,2.097,0.177,3.52c0,1.328-0.061,2.454-0.177,3.379c-0.12,0.923-0.297,1.671-0.533,2.24
		c-0.238,0.569-0.523,0.985-0.854,1.244c-0.332,0.261-0.711,0.392-1.138,0.392h-32.856v22.473h27.806
		c0.426,0,0.818,0.131,1.174,0.392s0.65,0.665,0.889,1.208c0.236,0.546,0.414,1.28,0.533,2.205c0.117,0.925,0.177,2.05,0.177,3.379
		c0,1.375-0.06,2.514-0.177,3.413c-0.12,0.902-0.297,1.624-0.533,2.17c-0.238,0.545-0.533,0.935-0.889,1.173
		s-0.747,0.356-1.174,0.356h-27.806v25.958h33.139c0.426,0,0.819,0.131,1.174,0.39c0.356,0.261,0.65,0.676,0.889,1.244
		c0.236,0.57,0.414,1.316,0.533,2.24C358.468,135.566,358.529,136.716,358.529,138.09z"/>
	<path fill="#333333" d="M393.801,142.856c0,0.474-0.155,0.902-0.462,1.28c-0.309,0.378-0.818,0.688-1.528,0.923
		c-0.713,0.237-1.661,0.426-2.846,0.569c-1.185,0.143-2.702,0.214-4.551,0.214c-1.803,0-3.307-0.072-4.517-0.214
		c-1.21-0.141-2.169-0.331-2.879-0.569c-0.711-0.236-1.222-0.545-1.529-0.923c-0.308-0.378-0.462-0.806-0.462-1.28V55.951
		c0-0.473,0.153-0.899,0.462-1.28c0.309-0.378,0.829-0.686,1.565-0.925c0.734-0.236,1.695-0.426,2.88-0.569
		c1.183-0.143,2.677-0.213,4.479-0.213c1.849,0,3.367,0.071,4.551,0.213c1.185,0.143,2.133,0.332,2.846,0.569
		c0.711,0.238,1.22,0.546,1.528,0.925c0.308,0.38,0.462,0.807,0.462,1.28V142.856z"/>
	<path fill="#333333" d="M481.062,142.642c0,0.522-0.131,0.983-0.39,1.386c-0.261,0.404-0.759,0.735-1.494,0.997
		c-0.735,0.261-1.743,0.462-3.022,0.604c-1.279,0.143-2.892,0.214-4.836,0.214c-3.082,0-5.297-0.12-6.65-0.356
		c-1.351-0.237-2.322-0.593-2.915-1.067c-0.594-0.474-1.056-1.042-1.387-1.707l-27.807-43.666v43.666
		c0,0.522-0.141,0.973-0.426,1.351c-0.284,0.38-0.781,0.699-1.492,0.961c-0.713,0.261-1.661,0.462-2.846,0.604
		c-1.185,0.143-2.702,0.214-4.551,0.214c-1.803,0-3.307-0.072-4.517-0.214c-1.21-0.141-2.169-0.343-2.879-0.604
		c-0.71-0.261-1.222-0.58-1.53-0.961c-0.309-0.378-0.462-0.829-0.462-1.351V56.022c0-0.521,0.153-0.971,0.462-1.351
		c0.309-0.378,0.819-0.686,1.53-0.925c0.711-0.236,1.671-0.426,2.879-0.569c1.21-0.143,2.714-0.213,4.517-0.213
		c1.849,0,3.367,0.071,4.551,0.213c1.185,0.143,2.133,0.332,2.846,0.569c0.711,0.238,1.208,0.546,1.492,0.925
		c0.285,0.38,0.426,0.83,0.426,1.351v39.186l26.953-39.115c0.331-0.616,0.734-1.125,1.21-1.528c0.474-0.402,1.09-0.722,1.849-0.961
		c0.758-0.237,1.729-0.402,2.916-0.498c1.183-0.095,2.702-0.143,4.551-0.143c1.896,0,3.46,0.071,4.694,0.213
		c1.232,0.143,2.216,0.345,2.951,0.604c0.734,0.261,1.244,0.581,1.529,0.961c0.284,0.38,0.425,0.806,0.425,1.28
		c0,0.806-0.213,1.636-0.64,2.489s-1.232,2.205-2.418,4.053l-25.247,33.07l27.522,41.604c1.042,1.944,1.671,3.235,1.884,3.875
		C480.955,141.754,481.062,142.264,481.062,142.642z"/>
	<path fill="#333333" d="M568.893,138.446c0.569,1.708,0.923,3.059,1.067,4.054c0.141,0.995-0.048,1.743-0.57,2.24
		c-0.522,0.498-1.447,0.806-2.773,0.925c-1.327,0.119-3.154,0.177-5.476,0.177c-2.418,0-4.302-0.036-5.654-0.107
		c-1.351-0.072-2.381-0.214-3.092-0.426c-0.711-0.214-1.21-0.509-1.494-0.889c-0.285-0.378-0.523-0.877-0.711-1.494l-6.187-18.49
		h-34.562l-5.832,17.992c-0.189,0.665-0.438,1.222-0.746,1.672c-0.309,0.452-0.807,0.807-1.494,1.067
		c-0.688,0.261-1.661,0.438-2.916,0.533c-1.258,0.095-2.904,0.143-4.943,0.143c-2.181,0-3.888-0.072-5.12-0.214
		c-1.232-0.141-2.086-0.485-2.561-1.03c-0.474-0.545-0.64-1.316-0.497-2.312c0.141-0.997,0.497-2.322,1.067-3.982l28.375-81.643
		c0.284-0.805,0.616-1.458,0.995-1.956c0.379-0.498,0.983-0.877,1.815-1.138c0.828-0.26,1.979-0.426,3.449-0.498
		c1.47-0.071,3.414-0.107,5.831-0.107c2.798,0,5.026,0.036,6.686,0.107c1.659,0.072,2.951,0.238,3.876,0.498
		c0.923,0.261,1.587,0.653,1.991,1.174c0.402,0.522,0.747,1.234,1.031,2.133L568.893,138.446z M526.648,70.957h-0.072
		l-13.014,39.114h26.101L526.648,70.957z"/>
	<path fill="#1EA7D6" d="M689.79,111.137c0,5.644-0.829,10.693-2.489,15.147c-1.66,4.458-4.101,8.226-7.324,11.308
		c-3.224,3.082-7.208,5.429-11.948,7.04c-4.742,1.612-10.195,2.418-16.357,2.418c-5.785,0-10.976-0.723-15.574-2.169
		c-4.6-1.446-8.488-3.637-11.663-6.578c-3.176-2.939-5.608-6.602-7.289-10.988c-1.683-4.385-2.525-9.517-2.525-15.397V55.95
		c0-0.473,0.143-0.899,0.426-1.28c0.284-0.378,0.793-0.686,1.528-0.925c0.734-0.236,1.695-0.426,2.88-0.569
		c1.185-0.143,2.702-0.213,4.551-0.213c1.801,0,3.295,0.071,4.481,0.213c1.185,0.143,2.133,0.332,2.845,0.569
		c0.711,0.238,1.22,0.546,1.528,0.925c0.308,0.38,0.462,0.807,0.462,1.28v54.334c0,3.651,0.45,6.815,1.352,9.494
		c0.899,2.678,2.192,4.896,3.875,6.65c1.683,1.755,3.699,3.07,6.046,3.946c2.346,0.878,4.966,1.316,7.858,1.316
		c2.939,0,5.571-0.45,7.894-1.351s4.29-2.216,5.904-3.948c1.611-1.729,2.855-3.864,3.733-6.401c0.877-2.536,1.316-5.415,1.316-8.64
		v-55.4c0-0.473,0.141-0.899,0.426-1.28c0.284-0.378,0.781-0.686,1.494-0.925c0.711-0.236,1.671-0.426,2.879-0.569
		c1.21-0.143,2.714-0.213,4.517-0.213c1.801,0,3.282,0.071,4.445,0.213c1.162,0.143,2.098,0.332,2.81,0.569
		c0.711,0.238,1.208,0.546,1.494,0.925c0.284,0.38,0.425,0.807,0.425,1.28L689.79,111.137L689.79,111.137z"/>
	<path fill="#1EA7D6" d="M728.55,142.856c0,0.474-0.155,0.902-0.462,1.28c-0.309,0.378-0.818,0.688-1.528,0.923
		c-0.713,0.237-1.661,0.426-2.846,0.569c-1.185,0.143-2.702,0.214-4.551,0.214c-1.803,0-3.307-0.072-4.517-0.214
		c-1.21-0.141-2.169-0.331-2.879-0.569c-0.711-0.236-1.222-0.545-1.529-0.923c-0.308-0.378-0.462-0.806-0.462-1.28V55.951
		c0-0.473,0.153-0.899,0.462-1.28c0.309-0.378,0.829-0.686,1.565-0.925c0.734-0.236,1.695-0.426,2.88-0.569
		c1.183-0.143,2.677-0.213,4.479-0.213c1.849,0,3.367,0.071,4.551,0.213c1.185,0.143,2.133,0.332,2.846,0.569
		c0.711,0.238,1.22,0.546,1.528,0.925c0.308,0.38,0.462,0.807,0.462,1.28L728.55,142.856L728.55,142.856z"/>
</g>
</svg>
